<svg width="166" height="80" viewBox="0 0 166 80" fill="none" xmlns="http://www.w3.org/2000/svg">
<path d="M48.3281 21.1254L32.8042 36.785H13L37.6312 11.358C46.7896 1.90162 51.2083 0.384949 66.8271 0.384949H128.507L115.12 14.0349H68.5917C56.925 14.0349 54.4458 14.9525 48.3281 21.1254ZM113.122 16.1886H68.8688C57.1219 16.1886 55.2844 17.1289 49.9542 22.6724L36.3771 36.785H54.7375L59.1125 32.235C61.9927 29.2016 63.2833 28.9438 69.1021 28.9438H100.85L113.122 16.1886ZM117.905 36.785L153 0.384949H131.198L96.1979 36.785H117.905Z" fill="white"/>
<path d="M126.361 32.8005H127.914V36.785H128.773V32.8005H130.335V32.0882H126.361V32.8005ZM130.891 36.785H131.709V33.1606L133.082 36.785H133.786L135.192 33.1606V36.785H136.01V32.0882H134.783L133.467 35.7673L132.101 32.0882H130.891V36.785Z" fill="white"/>
<path d="M11.268 73.4773H3.236V72.7733C3.236 72.4853 3.332 72.2133 3.524 71.9573C3.716 71.7173 3.988 71.5093 4.34 71.3173L9.236 68.6293C9.86 68.2933 10.372 67.9253 10.788 67.5093C11.188 67.0933 11.396 66.5013 11.396 65.7173C11.396 64.9493 11.14 64.3253 10.628 63.8293C10.116 63.3333 9.316 63.0773 8.228 63.0773H1.54V64.6773H8.164C8.644 64.6773 8.996 64.7893 9.188 64.9973C9.38 65.2213 9.476 65.4613 9.476 65.7493C9.476 66.0853 9.364 66.3573 9.156 66.5653C8.948 66.7893 8.628 67.0133 8.212 67.2373L3.476 69.9253C2.74 70.3573 2.196 70.8213 1.876 71.3333C1.556 71.8453 1.396 72.4373 1.396 73.1093V75.0773H11.268V73.4773ZM24.6963 70.0373V68.1173C24.6963 67.3173 24.5843 66.5973 24.3763 65.9573C24.1683 65.3173 23.8483 64.7573 23.4323 64.2933C23.0003 63.8453 22.4563 63.4933 21.7843 63.2373C21.1123 62.9973 20.3283 62.8693 19.4163 62.8693H18.9363C18.0083 62.8693 17.2243 62.9973 16.5523 63.2373C15.8802 63.4933 15.3203 63.8453 14.9042 64.2933C14.4722 64.7573 14.1522 65.3173 13.9602 65.9573C13.7522 66.5973 13.6562 67.3173 13.6562 68.1173V70.0373C13.6562 70.8373 13.7522 71.5573 13.9602 72.1973C14.1522 72.8373 14.4722 73.3973 14.9042 73.8453C15.3203 74.2933 15.8802 74.6453 16.5523 74.9013C17.2243 75.1573 18.0083 75.2693 18.9363 75.2693H19.4163C20.3283 75.2693 21.1123 75.1573 21.7843 74.9013C22.4563 74.6453 23.0003 74.2933 23.4323 73.8453C23.8483 73.3973 24.1683 72.8373 24.3763 72.1973C24.5843 71.5573 24.6963 70.8373 24.6963 70.0373ZM15.6562 70.4693V67.6693C15.6562 66.5973 15.8802 65.7973 16.3602 65.2693C16.8243 64.7413 17.6083 64.4693 18.6962 64.4693H19.6562C20.7443 64.4693 21.5283 64.7413 21.9923 65.2693C22.4563 65.7973 22.6962 66.5973 22.6962 67.6693V70.4693C22.6962 71.5413 22.4563 72.3413 21.9923 72.8693C21.5283 73.4133 20.7443 73.6693 19.6562 73.6693H18.6962C17.6083 73.6693 16.8243 73.4133 16.3602 72.8693C15.8802 72.3413 15.6562 71.5413 15.6562 70.4693ZM27.4131 75.0773H36.0851V73.4773H32.8851V65.1893C32.8851 64.4853 32.7251 63.9573 32.4051 63.6053C32.0851 63.2533 31.5571 63.0773 30.8531 63.0773H27.7811V64.6773H30.5651C30.7251 64.6773 30.8371 64.7253 30.9171 64.8213C30.9971 64.9173 31.0451 65.0453 31.0451 65.2053V73.4773H27.4131V75.0773ZM42.1484 70.1013H47.0124V70.2773C47.0124 71.3653 46.7724 72.1653 46.2924 72.6933C45.8124 73.2213 44.9804 73.4773 43.8124 73.4773H38.8524V75.0773H43.5724C44.5004 75.0773 45.3164 74.9653 45.9884 74.7093C46.6604 74.4693 47.2044 74.1173 47.6204 73.6533C48.0364 73.2053 48.3564 72.6453 48.5484 72.0053C48.7404 71.3653 48.8524 70.6293 48.8524 69.8293V67.5093C48.8524 65.8773 48.4524 64.7093 47.6844 63.9733C46.9164 63.2373 45.6204 62.8693 43.8284 62.8693H42.8204C41.4444 62.8693 40.3884 63.1093 39.6204 63.5573C38.8524 64.0213 38.4844 64.8373 38.4844 66.0053V66.8533C38.4844 68.1013 38.7884 68.9493 39.4124 69.4133C40.0364 69.8773 40.9484 70.1013 42.1484 70.1013ZM42.0524 68.5013C41.3164 68.5013 40.8364 68.3733 40.5964 68.1173C40.3564 67.8613 40.2444 67.5093 40.2444 67.0613V65.9093C40.2444 65.4453 40.4044 65.0933 40.7244 64.8373C41.0444 64.5973 41.6524 64.4693 42.5164 64.4693H44.0684C45.1244 64.4693 45.8924 64.6453 46.3404 64.9973C46.7884 65.3493 47.0124 66.0533 47.0124 67.0773V68.5013H42.0524ZM67.5872 73.4773H62.0512C60.9312 73.4773 60.1472 73.2213 59.6992 72.6933C59.2352 72.1653 59.0112 71.3653 59.0112 70.2773V67.8773C59.0112 66.8053 59.2352 66.0053 59.6992 65.4773C60.1472 64.9493 60.9312 64.6773 62.0512 64.6773H67.5072V63.0773H62.2912C61.3472 63.0773 60.5472 63.2053 59.8752 63.4453C59.2032 63.7013 58.6432 64.0533 58.2272 64.5013C57.8112 64.9653 57.4912 65.5253 57.2992 66.1653C57.1072 66.8053 57.0112 67.5253 57.0112 68.3253V69.8293C57.0112 70.6293 57.1072 71.3653 57.2992 72.0053C57.4912 72.6453 57.8112 73.2053 58.2272 73.6533C58.6432 74.1173 59.2032 74.4693 59.8752 74.7093C60.5472 74.9653 61.3472 75.0773 62.2912 75.0773H67.5872V73.4773ZM80.945 75.0773H82.945L78.369 64.6613C78.145 64.1813 77.889 63.7493 77.585 63.3973C77.281 63.0453 76.833 62.8693 76.225 62.8693C75.601 62.8693 75.137 63.0613 74.849 63.4293C74.561 63.7973 74.289 64.2613 74.033 64.8373L69.505 75.0773H71.473L72.849 71.8453H79.569L80.945 75.0773ZM75.729 65.0613C75.809 64.8693 75.889 64.7413 75.953 64.6773C76.017 64.6133 76.113 64.5813 76.209 64.5813C76.305 64.5813 76.385 64.6293 76.465 64.6933C76.529 64.7573 76.609 64.8853 76.689 65.0773L78.849 70.1493H73.569L75.729 65.0613ZM85.6706 75.0773H94.6466V73.4773H87.5106V63.0773H85.6706V75.0773ZM97.525 75.0773H107.141V73.4773H99.365V69.7813H107.141V68.1813H99.365V64.6773H107.141V63.0773H97.525V75.0773ZM110.77 75.0773H112.61V65.2213C112.61 65.0453 112.642 64.9013 112.706 64.7893C112.77 64.6933 112.898 64.6293 113.058 64.6293C113.186 64.6293 113.282 64.6933 113.362 64.7893C113.426 64.8853 113.522 65.0293 113.634 65.1893L118.866 73.5893C119.186 74.1013 119.522 74.5173 119.874 74.8213C120.226 75.1413 120.706 75.2853 121.298 75.2853C121.986 75.2853 122.514 75.0773 122.866 74.6453C123.218 74.2293 123.41 73.6533 123.41 72.9493V63.0773H121.57V72.9973C121.57 73.1733 121.522 73.3013 121.458 73.3973C121.378 73.4933 121.282 73.5253 121.154 73.5253C121.058 73.5253 120.962 73.4773 120.866 73.3813C120.77 73.2853 120.674 73.1733 120.578 73.0133L115.458 64.7413C115.074 64.1333 114.706 63.6693 114.354 63.3493C113.986 63.0293 113.522 62.8693 112.978 62.8693C112.178 62.8693 111.618 63.1093 111.282 63.5893C110.93 64.0693 110.77 64.6453 110.77 65.3173V75.0773ZM132.846 63.0773H127.406V75.0773H132.766C134.638 75.0773 136.046 74.6453 137.006 73.7493C137.966 72.8693 138.446 71.6373 138.446 70.0373V68.1173C138.446 66.5333 137.95 65.3013 136.99 64.4053C136.014 63.5253 134.638 63.0773 132.846 63.0773ZM133.086 64.6773C134.158 64.6773 134.99 64.9173 135.566 65.3653C136.142 65.8293 136.446 66.5973 136.446 67.6693V70.4693C136.446 71.5573 136.142 72.3253 135.55 72.7893C134.958 73.2533 134.11 73.4773 133.006 73.4773H129.246V64.6773H133.086ZM141.573 75.0773H151.189V73.4773H143.413V69.7813H151.189V68.1813H143.413V64.6773H151.189V63.0773H141.573V75.0773ZM156.229 75.0773V69.7173H156.965L162.197 75.0773H164.613L159.413 69.7173H160.405C161.733 69.7173 162.773 69.5093 163.509 69.0773C164.245 68.6613 164.629 67.8293 164.629 66.6133V66.1813C164.629 65.5733 164.517 65.0773 164.309 64.6773C164.101 64.2773 163.813 63.9573 163.445 63.7173C163.061 63.4933 162.629 63.3173 162.117 63.2213C161.605 63.1253 161.061 63.0773 160.485 63.0773H151.141V64.6773H160.885C161.573 64.6773 162.053 64.7893 162.325 64.9813C162.597 65.1893 162.741 65.5733 162.741 66.1493V66.6453C162.741 67.2213 162.597 67.6213 162.325 67.8293C162.053 68.0533 161.573 68.1493 160.885 68.1493H155.397C155.125 68.1493 154.885 68.2453 154.693 68.4053C154.485 68.5813 154.389 68.8053 154.389 69.0933V75.0773H156.229Z" fill="white"/>
</svg>
