<svg width="179" height="122" viewBox="0 0 179 122" fill="none" xmlns="http://www.w3.org/2000/svg">
<path d="M19.5312 8.58591C24.2101 3.28961 28.1046 0.546387 30.7551 0.546387C31.6206 0.546387 32.5131 0.845157 33.3785 1.44269C33.9735 2.04022 34.5685 2.90936 34.5685 3.77849C34.5685 5.27232 32.8106 7.30935 29.5651 10.6501C16.0153 23.6871 9.17271 39.6847 9.17271 58.9958C9.17271 80.3711 16.2857 97.5365 30.1601 110.872C33.081 113.507 34.271 115.571 34.271 117.337C34.271 118.206 33.676 119.102 33.081 119.971C32.513 120.569 31.323 121.166 30.4576 121.166C27.2391 121.166 22.7496 117.337 16.8807 109.895C5.46748 95.7711 0.328845 80.2081 0.0854352 58.9958C-0.130929 37.7834 6.52229 23.4155 19.5312 8.58591Z" fill="white"/>
<path d="M48.6593 117.472C45.7383 117.472 43.5476 115.272 43.5476 112.312C43.5476 109.379 45.7383 107.151 48.6593 107.151C56.8541 107.151 122.331 107.151 130.526 107.151C133.447 107.151 135.638 109.379 135.638 112.312C134.908 115.272 133.447 117.472 130.526 117.472C81.4114 117.472 54.1225 117.472 48.6593 117.472Z" fill="white"/>
<path d="M78.9774 23.9859C78.9774 38.7884 58.8555 55.0847 58.8555 70.4575C58.8555 87.0254 71.5669 97.7266 83.6563 100.959C85.4142 101.257 86.0092 99.4921 83.9537 98.8945C78.9774 97.7266 73.6224 91.1538 73.6224 81.1587C73.6224 71.6525 82.7908 68.1217 86.3067 63.6945C90.1201 58.9958 89.2276 53.0205 86.9017 51.255C84.5487 49.4896 86.3067 47.1266 90.1201 50.06C93.9336 52.7217 97.2331 58.0995 95.962 62.8254C94.5015 68.9908 96.557 72.6303 99.7754 73.2007C102.994 73.7982 106.618 72.0328 106.212 69.0995C105.834 66.1661 104.184 62.9069 105.049 62.9069C107.402 62.9069 112.189 68.5019 112.189 77.7365C112.189 86.9439 104.752 93.1093 102.426 95.4723C100.938 96.939 102.696 98.7044 104.752 97.8353C105.644 97.5365 107.7 96.3414 108.863 95.4723C114.705 91.3439 123.9 82.734 123.9 67.0353C123.9 50.4674 117.734 43.0254 111.216 36.8328C104.752 30.6674 103.183 32.134 105.049 35.3661C110.323 44.5736 107.105 47.8056 103.291 47.8056C98.6124 47.8056 98.6124 37.4303 96.4488 29.4723C92.6624 11.7365 76.354 8.69454 73.406 8.39577C71.2694 7.418 68.5378 9.18341 72.1348 10.6501C76.7055 13.8007 78.9774 18.2279 78.9774 23.9859Z" fill="white"/>
<path d="M159.546 113.507C154.84 118.803 150.946 121.546 148.295 121.546C147.43 121.546 146.537 121.248 145.672 120.677C145.077 120.08 144.509 118.912 144.509 118.016C144.509 116.549 146.267 114.485 149.485 111.551C163.035 98.5143 169.878 82.5168 169.878 63.2057C169.878 41.8304 162.765 24.6649 148.89 11.3291C145.969 8.69454 144.779 6.63035 144.779 4.86492C144.779 3.99578 145.374 3.09948 145.969 2.23035C146.537 1.63282 147.727 1.03528 148.593 1.03528C151.514 1.03528 156.301 4.86492 162.17 12.3341C173.015 26.4304 179.398 42.8625 178.965 63.3958C178.532 83.9563 172.528 98.7044 159.546 113.507Z" fill="white"/>
</svg>
