<svg width="95" height="107" viewBox="0 0 65 77" fill="none" xmlns="http://www.w3.org/2000/svg">
<path d="M14.0259 76.5925C9.51973 76.5925 6.15553 74.9567 3.93331 71.6851C1.71109 68.3518 0.599976 62.7345 0.599976 54.8333V44.4629C0.599976 40.3888 0.939482 36.6234 1.61849 33.1666C2.29751 29.6481 3.56294 26.8395 5.41479 24.7407C7.32837 22.6419 10.1061 21.5925 13.7481 21.5925C15.5382 21.5925 17.174 21.9938 18.6555 22.7962C20.137 23.5987 21.4642 24.5864 22.637 25.7592V0.851807H32.5444V75.8518H22.637V72.4259C21.4642 73.6604 20.1679 74.679 18.7481 75.4814C17.3901 76.2222 15.816 76.5925 14.0259 76.5925ZM16.5259 68.8148C17.4518 68.8148 18.4395 68.6604 19.4889 68.3518C20.5382 67.9814 21.5876 67.4567 22.637 66.7777V31.6851C21.7728 31.0679 20.816 30.5432 19.7666 30.1111C18.7173 29.6172 17.5753 29.3703 16.3407 29.3703C14.0568 29.3703 12.5136 30.4814 11.7111 32.7037C10.9086 34.8642 10.5074 37.4876 10.5074 40.574V55.6666C10.5074 58.1358 10.6308 60.3888 10.8778 62.4259C11.1864 64.4012 11.7728 65.9753 12.637 67.1481C13.5012 68.2592 14.7975 68.8148 16.5259 68.8148Z" fill="#FAFAFA"/>
<path d="M51.2041 76.5925C49.2906 76.5925 47.5622 76.1296 46.019 75.2037C44.5375 74.216 43.2412 73.1357 42.1301 71.9629V75.8518H32.2227V0.851807H42.1301V26.5925C43.3029 25.2345 44.6918 24.0617 46.2967 23.074C47.9634 22.0864 49.9387 21.5925 52.2227 21.5925C55.0004 21.5925 57.1918 22.3333 58.7967 23.8148C60.4634 25.2345 61.698 27.0555 62.5004 29.2777C63.3029 31.4382 63.8276 33.6604 64.0745 35.9444C64.3214 38.1666 64.4449 40.0802 64.4449 41.6851V54.6481C64.4449 58.4135 64.0745 61.9938 63.3338 65.3888C62.593 68.7222 61.2659 71.4382 59.3523 73.537C57.4387 75.574 54.7227 76.5925 51.2041 76.5925ZM49.1671 68.8148C50.8955 68.8148 52.1301 68.1975 52.8708 66.9629C53.6116 65.6666 54.0745 63.9382 54.2597 61.7777C54.4449 59.6172 54.5375 57.2407 54.5375 54.6481V41.6851C54.5375 39.4629 54.414 37.4259 54.1671 35.574C53.9202 33.6604 53.3955 32.1481 52.593 31.037C51.7906 29.9259 50.5251 29.3703 48.7967 29.3703C47.5004 29.3703 46.2659 29.6481 45.093 30.2037C43.9819 30.7592 42.9943 31.3765 42.1301 32.0555V66.4074C42.9943 67.0864 44.0128 67.6728 45.1856 68.1666C46.4202 68.5987 47.7474 68.8148 49.1671 68.8148Z" fill="#9C5F10"/>
</svg>
