<svg width="118" height="124" viewBox="0 0 118 124" fill="none" xmlns="http://www.w3.org/2000/svg">
<path d="M28.814 123.662C21.514 123.662 16.064 121.012 12.464 115.712C8.86401 110.312 7.06401 101.212 7.06401 88.4123V71.6123C7.06401 65.0123 7.61401 58.9123 8.71401 53.3123C9.81401 47.6123 11.864 43.0623 14.864 39.6623C17.964 36.2623 22.464 34.5623 28.364 34.5623C31.264 34.5623 33.914 35.2123 36.314 36.5123C38.714 37.8123 40.864 39.4123 42.764 41.3123V0.962301H58.814V122.462H42.764V116.912C40.864 118.912 38.764 120.562 36.464 121.862C34.264 123.062 31.714 123.662 28.814 123.662ZM32.864 111.062C34.364 111.062 35.964 110.812 37.664 110.312C39.364 109.712 41.064 108.862 42.764 107.762V50.9123C41.364 49.9123 39.814 49.0623 38.114 48.3623C36.414 47.5623 34.564 47.1623 32.564 47.1623C28.864 47.1623 26.364 48.9623 25.064 52.5623C23.764 56.0623 23.114 60.3123 23.114 65.3123V89.7623C23.114 93.7623 23.314 97.4123 23.714 100.712C24.214 103.912 25.164 106.462 26.564 108.362C27.964 110.162 30.064 111.062 32.864 111.062Z" fill="#FAFAFA"/>
<path d="M89.5582 123.662C86.4582 123.662 83.6582 122.912 81.1582 121.412C78.7582 119.812 76.6582 118.062 74.8582 116.162V122.462H58.8082V0.962301H74.8582V42.6623C76.7582 40.4623 79.0082 38.5623 81.6082 36.9623C84.3082 35.3623 87.5082 34.5623 91.2082 34.5623C95.7082 34.5623 99.2582 35.7623 101.858 38.1623C104.558 40.4623 106.558 43.4123 107.858 47.0123C109.158 50.5123 110.008 54.1123 110.408 57.8123C110.808 61.4123 111.008 64.5123 111.008 67.1123V88.1123C111.008 94.2123 110.408 100.012 109.208 105.512C108.008 110.912 105.858 115.312 102.758 118.712C99.6582 122.012 95.2582 123.662 89.5582 123.662ZM86.2582 111.062C89.0582 111.062 91.0582 110.062 92.2582 108.062C93.4582 105.962 94.2082 103.162 94.5082 99.6623C94.8082 96.1623 94.9582 92.3123 94.9582 88.1123V67.1123C94.9582 63.5123 94.7582 60.2123 94.3582 57.2123C93.9582 54.1123 93.1082 51.6623 91.8082 49.8623C90.5082 48.0623 88.4582 47.1623 85.6582 47.1623C83.5582 47.1623 81.5582 47.6123 79.6582 48.5123C77.8582 49.4123 76.2582 50.4123 74.8582 51.5123V107.162C76.2582 108.262 77.9082 109.212 79.8082 110.012C81.8082 110.712 83.9582 111.062 86.2582 111.062Z" fill="#9C5F10"/>
</svg>
