<svg width="900" height="231" viewBox="0 0 900 231" fill="none" xmlns="http://www.w3.org/2000/svg">
<path d="M141.569 1.17041L83.9006 133.523H59.6989L1.8418 1.17041H28.5015L72.5561 103.271L116.989 1.17041H141.569ZM283.16 112.914V133.523H183.895V1.17041H280.513V21.7797H208.475V56.1914H272.383V76.4225H208.475V112.914H283.16ZM425.519 133.523L398.481 94.7629C397.346 94.8888 395.645 94.9519 393.376 94.9519H363.502V133.523H338.922V1.17041H393.376C404.845 1.17041 414.806 3.06117 423.25 6.84268C431.822 10.6242 438.376 16.0442 442.914 23.1032C447.451 30.1621 449.72 38.5442 449.72 48.2502C449.72 58.2081 447.262 66.7796 442.346 73.9645C437.555 81.1494 430.624 86.5067 421.548 90.036L451.989 133.523H425.519ZM424.951 48.2502C424.951 39.805 422.18 33.3133 416.632 28.7755C411.085 24.2376 402.954 21.9687 392.241 21.9687H363.502V74.7208H392.241C402.954 74.7208 411.085 72.4519 416.632 67.9141C422.18 63.2504 424.951 56.6955 424.951 48.2502ZM592.177 133.523L565.14 94.7629C564.005 94.8888 562.304 94.9519 560.035 94.9519H530.161V133.523H505.581V1.17041H560.035C571.508 1.17041 581.464 3.06117 589.909 6.84268C598.481 10.6242 605.035 16.0442 609.572 23.1032C614.11 30.1621 616.379 38.5442 616.379 48.2502C616.379 58.2081 613.921 66.7796 609.005 73.9645C604.218 81.1494 597.283 86.5067 588.207 90.036L618.648 133.523H592.177ZM591.61 48.2502C591.61 39.805 588.838 33.3133 583.291 28.7755C577.747 24.2376 569.617 21.9687 558.9 21.9687H530.161V74.7208H558.9C569.617 74.7208 577.747 72.4519 583.291 67.9141C588.838 63.2504 591.61 56.6955 591.61 48.2502ZM672.243 1.17041H730.101C744.217 1.17041 756.76 3.94339 767.727 9.48974C778.693 14.9098 787.201 22.6619 793.252 32.746C799.302 42.7039 802.327 54.2375 802.327 67.3469C802.327 80.4562 799.302 92.0526 793.252 102.137C787.201 112.095 778.693 119.847 767.727 125.393C756.76 130.813 744.217 133.523 730.101 133.523H672.243V1.17041ZM728.966 112.725C738.669 112.725 747.178 110.897 754.491 107.242C761.926 103.46 767.598 98.1662 771.508 91.3595C775.539 84.4268 777.559 76.4225 777.559 67.3469C777.559 58.2712 775.539 50.3301 771.508 43.5234C767.598 36.5907 761.926 31.2966 754.491 27.641C747.178 23.8595 738.669 21.9687 728.966 21.9687H696.823V112.725H728.966ZM856.812 1.17041H881.391V133.523H856.812V1.17041Z" fill="white"/>
<path d="M20.1553 202.192H10.5049V197.617H35.2133V202.192H25.5629V226.734H20.1553V202.192ZM65.5183 226.734L59.57 218.207C59.3204 218.234 58.9461 218.248 58.4469 218.248H51.8746V226.734H46.4671V197.617H58.4469C60.9692 197.617 63.1624 198.032 65.0192 198.864C66.9061 199.696 68.3469 200.889 69.3452 202.442C70.3435 203.994 70.8427 205.839 70.8427 207.974C70.8427 210.165 70.3019 212.051 69.2204 213.631C68.1654 215.212 66.6414 216.39 64.6448 217.167L71.3418 226.734H65.5183ZM65.3935 207.974C65.3935 206.116 64.7847 204.688 63.5633 203.69C62.3418 202.691 60.5532 202.192 58.1973 202.192H51.8746V213.798H58.1973C60.5532 213.798 62.3418 213.298 63.5633 212.3C64.7847 211.274 65.3935 209.832 65.3935 207.974ZM102.974 219.996H88.4154L85.5452 226.734H79.9712L93.0742 197.617H98.3986L111.543 226.734H105.886L102.974 219.996ZM101.186 215.753L95.6948 203.024L90.2457 215.753H101.186ZM148.315 197.617V226.734H143.864L127.807 207.017V226.734H122.441V197.617H126.892L142.949 217.333V197.617H148.315ZM172.342 227.15C170.096 227.15 167.918 226.831 165.812 226.193C163.732 225.555 162.079 224.71 160.862 223.656L162.733 219.455C163.925 220.397 165.38 221.174 167.101 221.784C168.848 222.367 170.595 222.658 172.342 222.658C174.505 222.658 176.112 222.311 177.167 221.618C178.249 220.924 178.79 220.009 178.79 218.872C178.79 218.04 178.483 217.361 177.875 216.834C177.292 216.279 176.544 215.849 175.628 215.545C174.713 215.24 173.465 214.893 171.885 214.505C169.665 213.978 167.861 213.451 166.477 212.924C165.116 212.397 163.94 211.579 162.941 210.47C161.97 209.333 161.486 207.808 161.486 205.894C161.486 204.286 161.913 202.83 162.775 201.527C163.66 200.196 164.98 199.142 166.727 198.365C168.5 197.589 170.663 197.201 173.216 197.201C174.989 197.201 176.736 197.422 178.457 197.866C180.174 198.31 181.66 198.948 182.908 199.78L181.202 203.981C179.924 203.232 178.593 202.663 177.209 202.275C175.821 201.887 174.475 201.693 173.174 201.693C171.038 201.693 169.442 202.053 168.391 202.775C167.362 203.495 166.852 204.452 166.852 205.645C166.852 206.477 167.143 207.156 167.725 207.683C168.334 208.21 169.098 208.626 170.013 208.931C170.928 209.236 172.176 209.582 173.757 209.971C175.92 210.47 177.693 210.997 179.081 211.551C180.465 212.078 181.645 212.896 182.617 214.006C183.615 215.115 184.114 216.612 184.114 218.498C184.114 220.106 183.668 221.562 182.783 222.866C181.921 224.169 180.605 225.209 178.831 225.985C177.054 226.762 174.891 227.15 172.342 227.15ZM208.649 197.617C211.175 197.617 213.364 198.032 215.221 198.864C217.108 199.696 218.549 200.889 219.547 202.442C220.545 203.994 221.044 205.839 221.044 207.974C221.044 210.082 220.545 211.926 219.547 213.506C218.549 215.059 217.108 216.252 215.221 217.084C213.364 217.916 211.175 218.332 208.649 218.332H202.076V226.734H196.669V197.617H208.649ZM208.399 213.756C210.759 213.756 212.547 213.257 213.765 212.259C214.986 211.26 215.595 209.832 215.595 207.974C215.595 206.116 214.986 204.688 213.765 203.69C212.547 202.691 210.759 202.192 208.399 202.192H202.076V213.756H208.399ZM247.651 227.15C244.683 227.15 242.009 226.512 239.623 225.237C237.237 223.933 235.365 222.145 234.007 219.871C232.65 217.569 231.969 215.004 231.969 212.175C231.969 209.347 232.65 206.795 234.007 204.522C235.365 202.22 237.237 200.431 239.623 199.156C242.009 197.852 244.683 197.201 247.651 197.201C250.62 197.201 253.293 197.852 255.679 199.156C258.065 200.431 259.937 202.206 261.295 204.48C262.652 206.754 263.333 209.319 263.333 212.175C263.333 215.032 262.652 217.597 261.295 219.871C259.937 222.145 258.065 223.933 255.679 225.237C253.293 226.512 250.62 227.15 247.651 227.15ZM247.651 222.408C249.591 222.408 251.338 221.978 252.892 221.119C254.446 220.231 255.664 219.011 256.553 217.458C257.441 215.877 257.884 214.116 257.884 212.175C257.884 210.234 257.441 208.487 256.553 206.934C255.664 205.354 254.446 204.133 252.892 203.274C251.338 202.386 249.591 201.943 247.651 201.943C245.711 201.943 243.964 202.386 242.41 203.274C240.856 204.133 239.638 205.354 238.749 206.934C237.861 208.487 237.418 210.234 237.418 212.175C237.418 214.116 237.861 215.877 238.749 217.458C239.638 219.011 240.856 220.231 242.41 221.119C243.964 221.978 245.711 222.408 247.651 222.408ZM295.313 226.734L289.365 218.207C289.115 218.234 288.741 218.248 288.242 218.248H281.67V226.734H276.262V197.617H288.242C290.764 197.617 292.954 198.032 294.814 198.864C296.697 199.696 298.142 200.889 299.14 202.442C300.138 203.994 300.638 205.839 300.638 207.974C300.638 210.165 300.097 212.051 299.015 213.631C297.96 215.212 296.436 216.39 294.44 217.167L301.137 226.734H295.313ZM295.189 207.974C295.189 206.116 294.576 204.688 293.358 203.69C292.137 202.691 290.348 202.192 287.992 202.192H281.67V213.798H287.992C290.348 213.798 292.137 213.298 293.358 212.3C294.576 211.274 295.189 209.832 295.189 207.974ZM319.383 202.192H309.732V197.617H334.441V202.192H324.79V226.734H319.383V202.192ZM373.413 227.15C371.167 227.15 368.992 226.831 366.882 226.193C364.802 225.555 363.154 224.71 361.932 223.656L363.804 219.455C364.999 220.397 366.455 221.174 368.172 221.784C369.919 222.367 371.666 222.658 373.413 222.658C375.576 222.658 377.187 222.311 378.238 221.618C379.32 220.924 379.86 220.009 379.86 218.872C379.86 218.04 379.558 217.361 378.945 216.834C378.363 216.279 377.614 215.849 376.699 215.545C375.784 215.24 374.536 214.893 372.955 214.505C370.739 213.978 368.936 213.451 367.548 212.924C366.19 212.397 365.01 211.579 364.012 210.47C363.044 209.333 362.556 207.808 362.556 205.894C362.556 204.286 362.987 202.83 363.846 201.527C364.734 200.196 366.05 199.142 367.797 198.365C369.575 197.589 371.738 197.201 374.286 197.201C376.064 197.201 377.811 197.422 379.528 197.866C381.248 198.31 382.731 198.948 383.978 199.78L382.273 203.981C380.999 203.232 379.667 202.663 378.28 202.275C376.896 201.887 375.549 201.693 374.245 201.693C372.112 201.693 370.516 202.053 369.461 202.775C368.436 203.495 367.922 204.452 367.922 205.645C367.922 206.477 368.213 207.156 368.796 207.683C369.408 208.21 370.168 208.626 371.083 208.931C371.999 209.236 373.246 209.582 374.827 209.971C376.99 210.47 378.768 210.997 380.152 211.551C381.539 212.078 382.719 212.896 383.687 214.006C384.686 215.115 385.185 216.612 385.185 218.498C385.185 220.106 384.742 221.562 383.854 222.866C382.995 224.169 381.679 225.209 379.902 225.985C378.128 226.762 375.965 227.15 373.413 227.15ZM410.264 227.15C406.244 227.15 403.109 226.027 400.863 223.781C398.617 221.507 397.494 218.262 397.494 214.047V197.617H402.901V213.839C402.901 219.552 405.37 222.408 410.305 222.408C415.214 222.408 417.668 219.552 417.668 213.839V197.617H422.992V214.047C422.992 218.262 421.869 221.507 419.623 223.781C417.407 226.027 414.287 227.15 410.264 227.15ZM449.743 197.617C452.265 197.617 454.458 198.032 456.315 198.864C458.202 199.696 459.643 200.889 460.641 202.442C461.639 203.994 462.139 205.839 462.139 207.974C462.139 210.082 461.639 211.926 460.641 213.506C459.643 215.059 458.202 216.252 456.315 217.084C454.458 217.916 452.265 218.332 449.743 218.332H443.17V226.734H437.763V197.617H449.743ZM449.493 213.756C451.849 213.756 453.638 213.257 454.859 212.259C456.081 211.26 456.689 209.832 456.689 207.974C456.689 206.116 456.081 204.688 454.859 203.69C453.638 202.691 451.849 202.192 449.493 202.192H443.17V213.756H449.493ZM486.715 197.617C489.237 197.617 491.43 198.032 493.287 198.864C495.174 199.696 496.615 200.889 497.613 202.442C498.611 203.994 499.11 205.839 499.11 207.974C499.11 210.082 498.611 211.926 497.613 213.506C496.615 215.059 495.174 216.252 493.287 217.084C491.43 217.916 489.237 218.332 486.715 218.332H480.142V226.734H474.735V197.617H486.715ZM486.465 213.756C488.821 213.756 490.609 213.257 491.831 212.259C493.052 211.26 493.661 209.832 493.661 207.974C493.661 206.116 493.052 204.688 491.831 203.69C490.609 202.691 488.821 202.192 486.465 202.192H480.142V213.756H486.465ZM525.717 227.15C522.749 227.15 520.071 226.512 517.689 225.237C515.303 223.933 513.431 222.145 512.073 219.871C510.712 217.569 510.035 215.004 510.035 212.175C510.035 209.347 510.712 206.795 512.073 204.522C513.431 202.22 515.303 200.431 517.689 199.156C520.071 197.852 522.749 197.201 525.717 197.201C528.682 197.201 531.359 197.852 533.745 199.156C536.128 200.431 537.999 202.206 539.361 204.48C540.718 206.754 541.399 209.319 541.399 212.175C541.399 215.032 540.718 217.597 539.361 219.871C537.999 222.145 536.128 223.933 533.745 225.237C531.359 226.512 528.682 227.15 525.717 227.15ZM525.717 222.408C527.657 222.408 529.404 221.978 530.958 221.119C532.509 220.231 533.73 219.011 534.619 217.458C535.504 215.877 535.95 214.116 535.95 212.175C535.95 210.234 535.504 208.487 534.619 206.934C533.73 205.354 532.509 204.133 530.958 203.274C529.404 202.386 527.657 201.943 525.717 201.943C523.773 201.943 522.026 202.386 520.476 203.274C518.922 204.133 517.7 205.354 516.815 206.934C515.927 208.487 515.484 210.234 515.484 212.175C515.484 214.116 515.927 215.877 516.815 217.458C517.7 219.011 518.922 220.231 520.476 221.119C522.026 221.978 523.773 222.408 525.717 222.408ZM573.375 226.734L567.427 218.207C567.178 218.234 566.803 218.248 566.304 218.248H559.732V226.734H554.324V197.617H566.304C568.83 197.617 571.02 198.032 572.876 198.864C574.763 199.696 576.204 200.889 577.202 202.442C578.201 203.994 578.7 205.839 578.7 207.974C578.7 210.165 578.159 212.051 577.078 213.631C576.026 215.212 574.499 216.39 572.502 217.167L579.199 226.734H573.375ZM573.251 207.974C573.251 206.116 572.642 204.688 571.42 203.69C570.203 202.691 568.414 202.192 566.054 202.192H559.732V213.798H566.054C568.414 213.798 570.203 213.298 571.42 212.3C572.642 211.274 573.251 209.832 573.251 207.974ZM597.449 202.192H587.798V197.617H612.507V202.192H602.856V226.734H597.449V202.192ZM651.479 227.15C649.233 227.15 647.054 226.831 644.948 226.193C642.868 225.555 641.22 224.71 639.998 223.656L641.87 219.455C643.061 220.397 644.517 221.174 646.238 221.784C647.985 222.367 649.732 222.658 651.479 222.658C653.642 222.658 655.249 222.311 656.304 221.618C657.386 220.924 657.926 220.009 657.926 218.872C657.926 218.04 657.62 217.361 657.011 216.834C656.429 216.279 655.68 215.849 654.765 215.545C653.85 215.24 652.602 214.893 651.021 214.505C648.801 213.978 647.002 213.451 645.614 212.924C644.256 212.397 643.076 211.579 642.078 210.47C641.106 209.333 640.622 207.808 640.622 205.894C640.622 204.286 641.053 202.83 641.912 201.527C642.8 200.196 644.116 199.142 645.863 198.365C647.637 197.589 649.8 197.201 652.352 197.201C654.126 197.201 655.873 197.422 657.594 197.866C659.314 198.31 660.796 198.948 662.044 199.78L660.339 203.981C659.064 203.232 657.733 202.663 656.346 202.275C654.958 201.887 653.615 201.693 652.311 201.693C650.174 201.693 648.582 202.053 647.527 202.775C646.502 203.495 645.988 204.452 645.988 205.645C645.988 206.477 646.279 207.156 646.862 207.683C647.47 208.21 648.234 208.626 649.149 208.931C650.065 209.236 651.312 209.582 652.893 209.971C655.056 210.47 656.83 210.997 658.218 211.551C659.605 212.078 660.781 212.896 661.753 214.006C662.752 215.115 663.251 216.612 663.251 218.498C663.251 220.106 662.808 221.562 661.92 222.866C661.061 224.169 659.741 225.209 657.968 225.985C656.194 226.762 654.031 227.15 651.479 227.15ZM697.647 222.2V226.734H675.809V197.617H697.065V202.151H681.217V209.721H695.276V214.172H681.217V222.2H697.647ZM729.922 226.734L723.974 218.207C723.725 218.234 723.35 218.248 722.851 218.248H716.279V226.734H710.871V197.617H722.851C725.373 197.617 727.567 198.032 729.423 198.864C731.31 199.696 732.751 200.889 733.749 202.442C734.748 203.994 735.247 205.839 735.247 207.974C735.247 210.165 734.706 212.051 733.625 213.631C732.57 215.212 731.046 216.39 729.049 217.167L735.746 226.734H729.922ZM729.798 207.974C729.798 206.116 729.189 204.688 727.967 203.69C726.746 202.691 724.957 202.192 722.602 202.192H716.279V213.798H722.602C724.957 213.798 726.746 213.298 727.967 212.3C729.189 211.274 729.798 209.832 729.798 207.974ZM775.115 197.617L762.428 226.734H757.104L744.375 197.617H750.241L759.933 220.079L769.708 197.617H775.115ZM785.386 197.617H790.794V226.734H785.386V197.617ZM819.34 227.15C816.402 227.15 813.74 226.512 811.354 225.237C808.998 223.933 807.141 222.145 805.78 219.871C804.449 217.597 803.783 215.032 803.783 212.175C803.783 209.319 804.464 206.754 805.821 204.48C807.183 202.206 809.039 200.431 811.395 199.156C813.781 197.852 816.444 197.201 819.382 197.201C821.768 197.201 823.946 197.617 825.912 198.448C827.883 199.28 829.546 200.487 830.904 202.067L827.41 205.354C825.304 203.079 822.71 201.943 819.631 201.943C817.635 201.943 815.846 202.386 814.265 203.274C812.685 204.133 811.452 205.34 810.563 206.893C809.678 208.445 809.232 210.206 809.232 212.175C809.232 214.144 809.678 215.905 810.563 217.458C811.452 219.011 812.685 220.231 814.265 221.119C815.846 221.978 817.635 222.408 819.631 222.408C822.71 222.408 825.304 221.257 827.41 218.956L830.904 222.283C829.546 223.864 827.867 225.07 825.871 225.902C823.904 226.734 821.726 227.15 819.34 227.15ZM865.119 222.2V226.734H843.281V197.617H864.537V202.151H848.688V209.721H862.748V214.172H848.688V222.2H865.119ZM887.373 227.15C885.127 227.15 882.949 226.831 880.843 226.193C878.763 225.555 877.11 224.71 875.893 223.656L877.765 219.455C878.956 220.397 880.412 221.174 882.132 221.784C883.879 222.367 885.626 222.658 887.373 222.658C889.536 222.658 891.144 222.311 892.199 221.618C893.28 220.924 893.821 220.009 893.821 218.872C893.821 218.04 893.514 217.361 892.906 216.834C892.323 216.279 891.575 215.849 890.659 215.545C889.744 215.24 888.496 214.893 886.916 214.505C884.696 213.978 882.892 213.451 881.508 212.924C880.147 212.397 878.971 211.579 877.972 210.47C877.001 209.333 876.517 207.808 876.517 205.894C876.517 204.286 876.944 202.83 877.806 201.527C878.691 200.196 880.011 199.142 881.758 198.365C883.531 197.589 885.694 197.201 888.247 197.201C890.02 197.201 891.768 197.422 893.488 197.866C895.205 198.31 896.691 198.948 897.939 199.78L896.233 203.981C894.955 203.232 893.624 202.663 892.24 202.275C890.852 201.887 889.506 201.693 888.205 201.693C886.069 201.693 884.473 202.053 883.422 202.775C882.393 203.495 881.883 204.452 881.883 205.645C881.883 206.477 882.174 207.156 882.756 207.683C883.365 208.21 884.129 208.626 885.044 208.931C885.959 209.236 887.207 209.582 888.788 209.971C890.951 210.47 892.724 210.997 894.112 211.551C895.496 212.078 896.676 212.896 897.648 214.006C898.646 215.115 899.145 216.612 899.145 218.498C899.145 220.106 898.699 221.562 897.814 222.866C896.952 224.169 895.636 225.209 893.862 225.985C892.085 226.762 889.922 227.15 887.373 227.15Z" fill="white"/>
</svg>
