<svg width="33" height="33" viewBox="0 0 33 33" fill="none" xmlns="http://www.w3.org/2000/svg">
<path d="M16.8315 0.636475C8.03147 0.636475 0.831467 7.83648 0.831467 16.6365C0.831467 25.4365 8.03147 32.6365 16.8315 32.6365C25.6315 32.6365 32.8315 25.4365 32.8315 16.6365C32.8315 7.83648 25.6315 0.636475 16.8315 0.636475ZM7.91718 25.5508C5.51718 23.1508 4.26004 19.9508 4.26004 16.865L16.7172 29.2079C13.5172 29.0936 10.3172 27.9508 7.91718 25.5508ZM19.5743 28.865L4.6029 13.8936C5.86004 8.29362 10.8886 4.06505 16.8315 4.06505C21.06 4.06505 24.7172 6.12219 27.0029 9.2079L25.2886 10.6936C23.3458 8.06505 20.26 6.35076 16.8315 6.35076C12.3743 6.35076 8.6029 9.2079 7.11718 13.2079L20.26 26.3508C23.5743 25.2079 26.0886 22.3508 26.8886 18.9222H21.4029V16.6365H29.4029C29.4029 22.5793 25.1743 27.6079 19.5743 28.865Z" fill="#9C5F10"/>
</svg>
