<svg width="33" height="33" viewBox="0 0 33 33" fill="none" xmlns="http://www.w3.org/2000/svg">
<g clip-path="url(#clip0)">
<path d="M5.31408 24.2224L4.164 23.5584L16.976 1.36804L18.1261 2.03204L5.31408 24.2224Z" fill="#9C5F10"/>
<path d="M3.90063 21.7857H29.5246V23.1137H3.90063V21.7857Z" fill="#9C5F10"/>
<path d="M17.2246 29.9317L4.40777 22.5317L5.07177 21.3816L17.8886 28.7816L17.2246 29.9317ZM28.3585 10.6454L15.5417 3.24536L16.2057 2.09528L29.0225 9.49528L28.3585 10.6454Z" fill="#9C5F10"/>
<path d="M5.07523 10.6402L4.41123 9.49021L17.228 2.09021L17.892 3.24029L5.07523 10.6402Z" fill="#9C5F10"/>
<path d="M28.1221 24.2226L15.3101 2.03223L16.4602 1.36823L29.2722 23.5586L28.1221 24.2226ZM4.91668 8.60958H6.24468V23.4096H4.91668V8.60958ZM27.1887 8.60958H28.5167V23.4096H27.1887V8.60958Z" fill="#9C5F10"/>
<path d="M16.9985 29.3697L16.4185 28.3651L27.5657 21.9291L28.1457 22.9336L16.9985 29.3697Z" fill="#9C5F10"/>
<path d="M30.2766 23.8417C29.5086 25.1777 27.7966 25.6337 26.4606 24.8657C25.1246 24.0977 24.6686 22.3857 25.4366 21.0497C26.2046 19.7137 27.9166 19.2577 29.2526 20.0257C30.5966 20.8017 31.0526 22.5057 30.2766 23.8417ZM7.98862 10.9697C7.22062 12.3057 5.50862 12.7617 4.17262 11.9937C2.83662 11.2257 2.38062 9.5137 3.14862 8.1777C3.91662 6.8417 5.62862 6.3857 6.96462 7.1537C8.30062 7.9297 8.75662 9.6337 7.98862 10.9697ZM3.15662 23.8417C2.38862 22.5057 2.84462 20.8017 4.18062 20.0257C5.51662 19.2577 7.22062 19.7137 7.99662 21.0497C8.76462 22.3857 8.30862 24.0897 6.97262 24.8657C5.62862 25.6337 3.92462 25.1777 3.15662 23.8417ZM25.4446 10.9697C24.6766 9.6337 25.1326 7.9297 26.4686 7.1537C27.8046 6.3857 29.5086 6.8417 30.2846 8.1777C31.0526 9.5137 30.5966 11.2177 29.2606 11.9937C27.9246 12.7617 26.2126 12.3057 25.4446 10.9697ZM16.7166 31.6737C15.1726 31.6737 13.9246 30.4257 13.9246 28.8817C13.9246 27.3377 15.1726 26.0897 16.7166 26.0897C18.2606 26.0897 19.5086 27.3377 19.5086 28.8817C19.5086 30.4177 18.2606 31.6737 16.7166 31.6737ZM16.7166 5.9297C15.1726 5.9297 13.9246 4.6817 13.9246 3.1377C13.9246 1.5937 15.1726 0.345703 16.7166 0.345703C18.2606 0.345703 19.5086 1.5937 19.5086 3.1377C19.5086 4.6817 18.2606 5.9297 16.7166 5.9297Z" fill="#9C5F10"/>
</g>
<defs>
<clipPath id="clip0">
<rect width="32" height="32" fill="white" transform="translate(0.716675 0.00964355)"/>
</clipPath>
</defs>
</svg>
