<svg width="33" height="33" viewBox="0 0 33 33" fill="none" xmlns="http://www.w3.org/2000/svg">
<g clip-path="url(#clip0)">
<path d="M16.806 26.8452C16.599 26.7984 16.3977 26.7337 16.1957 26.6739L16.0435 26.6277C15.846 26.5672 15.6502 26.5034 15.4555 26.4364L15.3747 26.4072C15.2002 26.3459 15.0277 26.2812 14.8562 26.2149L14.7107 26.1577C14.5227 26.0834 14.3357 26.0059 14.1512 25.9249L14.0395 25.8754C13.8807 25.8034 13.7237 25.7309 13.5672 25.6557L13.4307 25.5902C13.308 25.5304 13.1865 25.4669 13.0655 25.4044C12.9845 25.3617 12.902 25.3214 12.8217 25.2769C12.6737 25.1977 12.5285 25.1154 12.384 25.0314L12.2362 24.9489C12.044 24.8359 11.854 24.7187 11.6662 24.5997L11.5125 24.4972C11.376 24.4094 11.2405 24.3199 11.1067 24.2274L10.976 24.1357C10.847 24.0444 10.7195 23.9522 10.5925 23.8584L10.4227 23.7299C10.3067 23.6412 10.191 23.5517 10.0767 23.4594L9.92247 23.3357C9.77722 23.2159 9.63347 23.0959 9.49147 22.9724L9.44447 22.9327C9.29097 22.7979 9.14022 22.6597 8.99147 22.5209L8.86397 22.3982C8.75372 22.2932 8.64522 22.1874 8.53847 22.0789L8.41097 21.9517C8.27522 21.8127 8.14197 21.6719 8.01122 21.5292L7.99172 21.5082C7.85347 21.3572 7.71872 21.2029 7.58647 21.0472L7.48047 20.9212C7.38172 20.8024 7.28422 20.6822 7.18872 20.5607L7.08197 20.4277C6.96722 20.2787 6.85497 20.1304 6.74522 19.9792C3.70772 15.8357 2.61622 10.1212 5.04422 5.42818L2.89147 8.15843C0.134219 12.1212 0.477469 17.2774 2.58372 21.4884C2.63372 21.5894 2.68647 21.6887 2.73797 21.7879L2.83672 21.9777L2.89797 22.0869L3.00772 22.2834C3.07322 22.3987 3.14022 22.5134 3.20897 22.6282L3.32347 22.8172C3.39947 22.9399 3.47722 23.0612 3.55697 23.1822L3.65647 23.3357C3.76597 23.4994 3.87847 23.6629 3.99447 23.8234L4.00422 23.8359L4.06122 23.9129C4.16122 24.0512 4.26472 24.1877 4.36922 24.3227L4.48497 24.4702C4.57822 24.5874 4.67297 24.7039 4.76972 24.8199L4.87847 24.9499C5.00797 25.1024 5.14022 25.2542 5.27497 25.4029L5.28297 25.4112L5.29847 25.4282C5.42997 25.5719 5.56497 25.7124 5.70147 25.8529L5.83072 25.9832C5.93647 26.0897 6.04397 26.1944 6.15247 26.2987L6.28397 26.4237C6.42897 26.5604 6.57547 26.6944 6.72497 26.8254L6.73197 26.8309L6.80872 26.8964C6.94022 27.0104 7.07422 27.1237 7.20947 27.2347L7.37547 27.3669C7.48572 27.4554 7.59722 27.5424 7.70947 27.6279L7.88797 27.7637C8.01172 27.8549 8.13672 27.9447 8.26272 28.0324L8.39922 28.1292L8.43672 28.1559C8.55622 28.2382 8.67847 28.3174 8.80072 28.3967L8.95822 28.5017C9.14547 28.6202 9.33572 28.7374 9.52772 28.8507L9.68522 28.9394C9.82647 29.0209 9.96872 29.1009 10.113 29.1792C10.191 29.2212 10.271 29.2609 10.3495 29.3012C10.4512 29.3544 10.5522 29.4084 10.6557 29.4602L10.7265 29.4944L10.8517 29.5549C11.012 29.6314 11.1735 29.7067 11.3367 29.7792L11.4392 29.8252C11.6262 29.9069 11.8147 29.9854 12.005 30.0604L12.1427 30.1147C12.3187 30.1824 12.4972 30.2494 12.6765 30.3124L12.7435 30.3357C12.94 30.4044 13.1387 30.4682 13.3387 30.5304L13.4825 30.5734C13.686 30.6347 13.887 30.7079 14.097 30.7467C27.4317 33.1784 31.3052 22.7334 31.3052 22.7334C28.0517 26.9719 22.2772 28.0899 16.806 26.8452ZM12.0025 16.0374C12.3012 16.4657 12.6325 16.9752 13.0287 17.3192C13.1725 17.4774 13.3227 17.6319 13.4762 17.7837L13.5942 17.8999C13.7432 18.0444 13.8947 18.1864 14.0512 18.3244L14.0697 18.3404L14.0742 18.3449C14.2475 18.4969 14.4262 18.6427 14.608 18.7867L14.729 18.8812C14.9112 19.0209 15.097 19.1579 15.2872 19.2889L15.3035 19.3012C15.3875 19.3592 15.4732 19.4132 15.5585 19.4692L15.679 19.5489C15.815 19.6362 15.953 19.7212 16.093 19.8027L16.1515 19.8367C16.2722 19.9062 16.3947 19.9747 16.5172 20.0412L16.6475 20.1089C16.7322 20.1532 16.817 20.1984 16.9035 20.2414L16.9422 20.2589C17.1177 20.3454 17.295 20.4289 17.4762 20.5077L17.5942 20.5562C17.7387 20.6177 17.885 20.6777 18.0317 20.7337L18.2192 20.8024C18.3525 20.8519 18.4862 20.8969 18.6212 20.9422L18.803 21.0004C18.9947 21.0599 19.1842 21.1352 19.384 21.1684C29.6797 22.8742 32.0565 14.9469 32.0565 14.9469C29.914 18.0327 25.7645 19.5052 21.3367 18.3557C21.14 18.3039 20.9462 18.2479 20.7535 18.1872L20.5785 18.1304C20.4415 18.0862 20.3055 18.0392 20.1705 17.9899L19.9865 17.9214C19.8387 17.8644 19.6925 17.8059 19.5475 17.7444L19.4292 17.6944C19.2475 17.6154 19.0685 17.5319 18.8922 17.4447C18.8012 17.4004 18.712 17.3537 18.6227 17.3077L18.4672 17.2277C18.3527 17.1657 18.2387 17.1012 18.1265 17.0352L18.045 16.9889C17.9055 16.9077 17.7685 16.8237 17.6325 16.7369L17.508 16.6539C17.4185 16.5959 17.3287 16.5367 17.2407 16.4772C17.051 16.3462 16.8665 16.2092 16.6842 16.0702L16.559 15.9714C14.621 14.4414 13.0847 12.3499 12.3542 9.97868C11.5887 7.51968 11.754 4.75918 13.08 2.51868L11.4507 4.81868C9.45647 7.68818 9.56497 11.5297 11.1205 14.5644C11.3812 15.0739 11.6745 15.5677 12.0025 16.0374ZM22.8542 12.4877C22.939 12.5189 23.0237 12.5469 23.1097 12.5762L23.2225 12.6119C23.3435 12.6499 23.464 12.6942 23.5892 12.7179C29.274 13.8164 30.8162 9.80068 31.2265 9.20943C29.8757 11.1542 27.606 11.6209 24.8207 10.9449C24.6007 10.8917 24.3587 10.8122 24.1467 10.7369C23.8747 10.6399 23.6067 10.5294 23.3465 10.4047C22.8517 10.1669 22.3805 9.87868 21.9435 9.54868C19.4512 7.65743 17.903 4.05018 19.5292 1.11243L18.6492 2.32518C17.4737 4.05518 17.3582 6.20368 18.174 8.11418C19.0342 10.1422 20.797 11.7329 22.8542 12.4877Z" fill="#9C5F10"/>
</g>
<defs>
<clipPath id="clip0">
<rect width="32" height="32" fill="white" transform="translate(0.485229 0.113159)"/>
</clipPath>
</defs>
</svg>
