<svg width="33" height="33" viewBox="0 0 33 33" fill="none" xmlns="http://www.w3.org/2000/svg">
<g clip-path="url(#clip0)">
<path d="M16.0167 19.5151C17.5907 19.5151 18.8667 18.2391 18.8667 16.6651C18.8667 15.0911 17.5907 13.8151 16.0167 13.8151C14.4426 13.8151 13.1667 15.0911 13.1667 16.6651C13.1667 18.2391 14.4426 19.5151 16.0167 19.5151Z" fill="#9C5F10"/>
<path d="M26.8417 11.9651C26.2917 11.7651 25.7167 11.5651 25.1167 11.3901C25.2667 10.7901 25.3917 10.1901 25.4917 9.61506C26.0167 6.31506 25.4417 3.99006 23.8417 3.09006C23.3667 2.81506 22.8417 2.69006 22.2417 2.69006C20.4917 2.69006 18.2667 3.99006 16.0167 6.16506C13.7667 3.99006 11.5417 2.69006 9.79165 2.69006C9.19165 2.69006 8.66665 2.81506 8.19165 3.09006C6.59165 4.01506 6.01665 6.34006 6.54165 9.61506C6.64165 10.1901 6.76665 10.7901 6.91665 11.3901C6.31665 11.5651 5.74165 11.7401 5.19165 11.9651C2.06665 13.1651 0.366653 14.8151 0.366653 16.6651C0.366653 18.5151 2.09165 20.1651 5.19165 21.3651C5.74165 21.5651 6.31665 21.7651 6.91665 21.9401C6.76665 22.5401 6.64165 23.1401 6.54165 23.7151C6.01665 27.0151 6.59165 29.3401 8.19165 30.2401C8.66665 30.5151 9.19165 30.6401 9.79165 30.6401C11.5667 30.6401 13.7917 29.3401 16.0167 27.1651C18.2667 29.3401 20.4917 30.6401 22.2417 30.6401C22.8417 30.6401 23.3667 30.5151 23.8417 30.2401C25.4417 29.3151 26.0167 26.9901 25.4917 23.7151C25.3917 23.1401 25.2667 22.5401 25.1167 21.9401C25.7167 21.7651 26.2917 21.5901 26.8417 21.3651C29.9667 20.1651 31.6667 18.5151 31.6667 16.6651C31.6667 14.8151 29.9667 13.1651 26.8417 11.9651ZM23.1417 4.34006C24.1667 4.94006 24.5167 6.79006 24.0917 9.41506C24.0167 9.94006 23.8917 10.4901 23.7417 11.0651C22.4417 10.7651 21.0667 10.5651 19.6167 10.4401C18.7667 9.24006 17.8917 8.16506 17.0167 7.19006C18.8667 5.36506 20.7417 4.11506 22.2667 4.11506C22.5917 4.11506 22.8917 4.19006 23.1417 4.34006ZM20.3417 19.1651C19.8917 19.9651 19.3667 20.7651 18.8167 21.5651C17.8917 21.6401 16.9667 21.6651 16.0167 21.6651C15.0417 21.6651 14.1167 21.6401 13.2167 21.5651C12.6667 20.7651 12.1667 19.9651 11.7167 19.1651C11.2417 18.3401 10.7917 17.4901 10.3917 16.6651C10.7917 15.8401 11.2417 14.9901 11.7167 14.1651C12.1667 13.3651 12.6917 12.5651 13.2417 11.7651C14.1667 11.6901 15.0917 11.6651 16.0417 11.6651C17.0167 11.6651 17.9417 11.6901 18.8417 11.7651C19.3917 12.5651 19.8917 13.3651 20.3417 14.1651C20.8167 14.9901 21.2667 15.8401 21.6667 16.6651C21.2417 17.4901 20.8167 18.3151 20.3417 19.1651ZM22.4167 18.3401C22.7917 19.2151 23.0917 20.0651 23.3667 20.9151C22.5167 21.1151 21.6167 21.2651 20.6667 21.3901C20.9667 20.9151 21.2917 20.4151 21.5667 19.8901C21.8667 19.3651 22.1417 18.8401 22.4167 18.3401ZM16.0167 25.1151C15.4167 24.4651 14.8417 23.7651 14.2917 23.0401C14.8667 23.0651 15.4417 23.0901 16.0167 23.0901C16.5917 23.0901 17.1667 23.0651 17.7417 23.0401C17.1917 23.7651 16.6167 24.4651 16.0167 25.1151ZM11.3667 21.3651C10.4167 21.2401 9.51665 21.0901 8.66665 20.8901C8.94165 20.0651 9.24165 19.1901 9.61665 18.3151C9.89165 18.8151 10.1667 19.3401 10.4667 19.8401C10.7667 20.3901 11.0667 20.8651 11.3667 21.3651ZM9.61665 14.9901C9.24165 14.1151 8.94165 13.2651 8.66665 12.4151C9.51665 12.2151 10.4167 12.0651 11.3667 11.9401C11.0667 12.4151 10.7417 12.9151 10.4667 13.4401C10.1667 13.9651 9.89165 14.4901 9.61665 14.9901ZM16.0167 8.21506C16.6167 8.86506 17.1917 9.56506 17.7417 10.2901C17.1667 10.2651 16.5917 10.2401 16.0167 10.2401C15.4417 10.2401 14.8667 10.2651 14.2917 10.2901C14.8417 9.56506 15.4167 8.86506 16.0167 8.21506ZM21.5667 13.4651L20.6667 11.9651C21.6167 12.0901 22.5167 12.2401 23.3667 12.4401C23.0917 13.2651 22.7917 14.1401 22.4167 15.0151C22.1417 14.4901 21.8667 13.9651 21.5667 13.4651ZM7.94165 9.41506C7.51665 6.79006 7.86665 4.94006 8.89165 4.34006C9.14165 4.19006 9.44165 4.11506 9.76665 4.11506C11.2667 4.11506 13.1417 5.34006 15.0167 7.19006C14.1417 8.14006 13.2667 9.24006 12.4167 10.4401C10.9667 10.5651 9.59165 10.7901 8.29165 11.0651C8.14165 10.4901 8.04165 9.94006 7.94165 9.41506ZM1.76665 16.6651C1.76665 15.4901 3.19165 14.2401 5.69165 13.3151C6.19165 13.1151 6.74165 12.9401 7.29165 12.7901C7.69165 14.0401 8.19165 15.3651 8.79165 16.6901C8.19165 18.0151 7.66665 19.3151 7.29165 20.5651C3.84165 19.5651 1.76665 18.0651 1.76665 16.6651ZM8.89165 28.9901C7.86665 28.3901 7.51665 26.5401 7.94165 23.9151C8.01665 23.3901 8.14165 22.8401 8.29165 22.2651C9.59165 22.5651 10.9667 22.7651 12.4167 22.8901C13.2667 24.0901 14.1417 25.1651 15.0167 26.1401C13.1667 27.9651 11.2917 29.2151 9.76665 29.2151C9.44165 29.2151 9.14165 29.1401 8.89165 28.9901ZM24.0917 23.9151C24.5167 26.5401 24.1667 28.3901 23.1417 28.9901C22.8917 29.1401 22.5917 29.2151 22.2667 29.2151C20.7667 29.2151 18.8917 27.9901 17.0167 26.1401C17.8917 25.1901 18.7667 24.0901 19.6167 22.8901C21.0667 22.7651 22.4417 22.5401 23.7417 22.2651C23.8917 22.8401 23.9917 23.3901 24.0917 23.9151ZM26.3417 20.0151C25.8417 20.2151 25.2917 20.3901 24.7417 20.5401C24.3417 19.2901 23.8417 17.9651 23.2417 16.6401C23.8417 15.3151 24.3667 14.0151 24.7417 12.7651C28.1917 13.7651 30.2667 15.2651 30.2667 16.6651C30.2667 17.8401 28.8167 19.0901 26.3417 20.0151Z" fill="#9C5F10"/>
</g>
<defs>
<clipPath id="clip0">
<rect width="32" height="32" fill="white" transform="translate(0.0166626 0.665039)"/>
</clipPath>
</defs>
</svg>
